<svg width="69" height="61" viewBox="0 0 69 61" fill="none" xmlns="http://www.w3.org/2000/svg">
<path d="M37.1303 56.26L37.1303 38.8956C37.1303 37.6934 36.024 36.7288 34.6454 36.7288L4.77575 36.7288C3.39715 36.7288 2.29082 37.6934 2.29082 38.8956L2.29082 56.26C2.29082 57.4622 3.39715 58.4269 4.77575 58.4269L34.6454 58.4269C36.024 58.4269 37.1303 57.4622 37.1303 56.26Z" stroke="#6050DC" stroke-width="4" stroke-linecap="round" stroke-linejoin="round"/>
<path d="M67 56.26L67 38.8956C67 37.6934 65.8937 36.7288 64.5151 36.7288L54.5075 36.7288C53.1289 36.7288 52.0226 37.6934 52.0226 38.8956L52.0226 56.26C52.0226 57.4622 53.1289 58.4269 54.5075 58.4269L64.5151 58.4269C65.8937 58.4269 67 57.4622 67 56.26Z" stroke="#6050DC" stroke-width="4" stroke-linecap="round" stroke-linejoin="round"/>
<path d="M67 21.5313L67 4.16683C67 2.96468 65.8937 2 64.5151 2L34.6454 2C33.2668 2 32.1605 2.96468 32.1605 4.16683L32.1605 21.5313C32.1605 22.7334 33.2668 23.6981 34.6454 23.6981L64.5151 23.6981C65.8937 23.6981 67 22.7334 67 21.5313Z" stroke="#6050DC" stroke-width="4" stroke-linecap="round" stroke-linejoin="round"/>
<path d="M17.2681 21.5313L17.2681 4.16683C17.2681 2.96468 16.1619 2 14.7833 2L4.77562 2C3.39702 2 2.29069 2.96468 2.29069 4.16683L2.29069 21.5313C2.29069 22.7334 3.39701 23.6981 4.77562 23.6981L14.7833 23.6981C16.1619 23.6981 17.2681 22.7334 17.2681 21.5313Z" stroke="#6050DC" stroke-width="4" stroke-linecap="round" stroke-linejoin="round"/>
</svg>
