<svg width="48" height="67" viewBox="0 0 48 67" fill="none" xmlns="http://www.w3.org/2000/svg">
<path d="M45.7645 23.8994C45.7977 20.0162 44.7676 16.1991 42.8072 12.8447C40.8467 9.49032 38.0224 6.71425 34.6166 4.79744C31.2107 2.89716 27.3563 1.92223 23.452 2.00485C19.5478 2.08747 15.7432 3.19459 12.4204 5.22707C9.09766 7.25955 6.37295 10.1513 4.54542 13.5718C2.7179 17.0088 1.85399 20.859 2.02013 24.7422C2.20289 28.6254 3.41569 32.3764 5.54227 35.6316C7.66884 38.8869 10.6427 41.5142 14.1482 43.2328V50.4869C14.1482 51.1313 14.3975 51.7427 14.8627 52.1889C15.3113 52.635 15.9426 52.8994 16.5739 52.8994H31.1609C31.8088 52.8994 32.4235 52.6516 32.8721 52.1889C33.3207 51.7427 33.5865 51.1148 33.5865 50.4869V43.2328C37.2249 41.4481 40.2819 38.7051 42.4251 35.2846C44.5683 31.8641 45.7146 27.9313 45.7312 23.8994H45.7645Z" stroke="#6050DC" stroke-width="4" stroke-linecap="round" stroke-linejoin="round"/>
<path d="M14.1815 64.8464H33.6197" stroke="#6050DC" stroke-width="4" stroke-linecap="round" stroke-linejoin="round"/>
</svg>
