<svg width="79" height="61" viewBox="0 0 79 61" fill="none" xmlns="http://www.w3.org/2000/svg">
<path d="M61.0877 18.855C61.0877 22.7535 57.9091 25.915 53.9894 25.915C50.0698 25.915 46.8911 22.7535 46.8911 18.855C46.8911 14.9564 50.0698 11.7949 53.9894 11.7949C57.9091 11.7949 61.0877 14.9564 61.0877 18.855Z" stroke="#6050DC" stroke-width="4" stroke-linecap="round" stroke-linejoin="round"/>
<path d="M8.35743 58.7516H71.1112C74.2704 58.7516 76.825 56.2108 76.825 53.0687V7.6829C76.825 4.54081 74.2704 2 71.1112 2H8.35743C5.19829 2 2.64368 4.54081 2.64368 7.6829V53.0687C2.64368 56.2108 5.19829 58.7516 8.35743 58.7516Z" stroke="#6050DC" stroke-width="4" stroke-linecap="round" stroke-linejoin="round"/>
<path d="M53.9894 25.915C57.9091 25.915 61.0877 22.7535 61.0877 18.855C61.0877 14.9564 57.9091 11.7949 53.9894 11.7949C50.0698 11.7949 46.8911 14.9564 46.8911 18.855C46.8911 22.7535 50.0698 25.915 53.9894 25.915Z" stroke="#6050DC" stroke-width="4" stroke-linecap="round" stroke-linejoin="round"/>
<path d="M51.6104 58.7516H8.35743C5.19829 58.7516 2.64368 56.2108 2.64368 53.0687V26.6713C5.3543 26.1476 8.12342 25.8955 10.8925 25.9149C20.487 25.7015 29.8474 28.8824 37.3162 34.895C44.7656 40.9077 49.8358 49.3641 51.6104 58.7516Z" stroke="#6050DC" stroke-width="4" stroke-linecap="round" stroke-linejoin="round"/>
<path d="M76.8055 41.3925C72.3203 39.8797 67.601 39.1233 62.8623 39.1233C56.8561 39.1233 50.9083 40.3259 45.4091 42.6727V43.7006C48.4707 48.2198 50.5963 53.3403 51.6103 58.7711H71.1112C74.2703 58.7711 76.825 56.2302 76.825 53.0882V41.412L76.8055 41.3925Z" stroke="#6050DC" stroke-width="4" stroke-linecap="round" stroke-linejoin="round"/>
</svg>
